<?xml version="1.0" encoding="UTF-8" standalone="no"?>
<!-- Created with Inkscape (http://www.inkscape.org/) -->

<svg
   xmlns:dc="http://purl.org/dc/elements/1.1/"
   xmlns:cc="http://creativecommons.org/ns#"
   xmlns:rdf="http://www.w3.org/1999/02/22-rdf-syntax-ns#"
   xmlns:svg="http://www.w3.org/2000/svg"
   xmlns="http://www.w3.org/2000/svg"
   xmlns:xlink="http://www.w3.org/1999/xlink"
   xmlns:sodipodi="http://sodipodi.sourceforge.net/DTD/sodipodi-0.dtd"
   xmlns:inkscape="http://www.inkscape.org/namespaces/inkscape"
   width="470.01596"
   height="458.16537"
   id="svg3065"
   version="1.1"
   inkscape:version="0.48.5 r10040"
   sodipodi:docname="infinispan_login_background.svg">
  <defs
     id="defs3067">
    <linearGradient
       id="SVGID_1_"
       gradientUnits="userSpaceOnUse"
       x1="117.2437"
       y1="178.56841"
       x2="5.6531"
       y2="248.0489">
      <stop
         offset="0.0165"
         style="stop-color:#5A6B6E"
         id="stop7" />
      <stop
         offset="0.3901"
         style="stop-color:#6393B2"
         id="stop9" />
      <stop
         offset="1"
         style="stop-color:#B0CEE3"
         id="stop11" />
    </linearGradient>
    <linearGradient
       id="SVGID_2_"
       gradientUnits="userSpaceOnUse"
       x1="113.0874"
       y1="175.3672"
       x2="-1.142"
       y2="254.6792">
      <stop
         offset="0.0165"
         style="stop-color:#5A6B6E"
         id="stop16" />
      <stop
         offset="0.3901"
         style="stop-color:#6393B2"
         id="stop18" />
      <stop
         offset="1"
         style="stop-color:#B0CEE3"
         id="stop20" />
    </linearGradient>
    <linearGradient
       id="SVGID_3_"
       gradientUnits="userSpaceOnUse"
       x1="135.0688"
       y1="47.122601"
       x2="250.35789"
       y2="47.122601">
      <stop
         offset="0.0165"
         style="stop-color:#5A6B6E"
         id="stop25" />
      <stop
         offset="0.3901"
         style="stop-color:#6393B2"
         id="stop27" />
      <stop
         offset="1"
         style="stop-color:#B0CEE3"
         id="stop29" />
    </linearGradient>
    <linearGradient
       id="SVGID_4_"
       gradientUnits="userSpaceOnUse"
       x1="130.61079"
       y1="50.209"
       x2="254.0825"
       y2="50.209">
      <stop
         offset="0.0165"
         style="stop-color:#5A6B6E"
         id="stop34" />
      <stop
         offset="0.3901"
         style="stop-color:#6393B2"
         id="stop36" />
      <stop
         offset="1"
         style="stop-color:#B0CEE3"
         id="stop38" />
    </linearGradient>
    <radialGradient
       id="SVGID_5_"
       cx="405.3345"
       cy="-71.5923"
       r="78.204201"
       gradientTransform="matrix(2.9901,0,0,2.7606,-1085.2839,327.5948)"
       gradientUnits="userSpaceOnUse">
      <stop
         offset="0"
         style="stop-color:#F6F8F8"
         id="stop43" />
      <stop
         offset="1"
         style="stop-color:#B0CEE3"
         id="stop45" />
    </radialGradient>
    <radialGradient
       inkscape:collect="always"
       xlink:href="#SVGID_6_"
       id="radialGradient3057"
       gradientUnits="userSpaceOnUse"
       gradientTransform="matrix(16.0502,0,0,16.0502,-2063.0264,-2178.1418)"
       cx="136.4507"
       cy="143.5596"
       r="7.8839002" />
    <radialGradient
       id="SVGID_6_"
       cx="136.4507"
       cy="143.5596"
       r="7.8839002"
       gradientTransform="matrix(16.0502,0,0,16.0502,-2063.0264,-2178.1418)"
       gradientUnits="userSpaceOnUse">
      <stop
         offset="0"
         style="stop-color:#F6F8F8"
         id="stop50" />
      <stop
         offset="1"
         style="stop-color:#B0CEE3"
         id="stop52" />
    </radialGradient>
    <linearGradient
       inkscape:collect="always"
       xlink:href="#SVGID_2_"
       id="linearGradient3237"
       gradientUnits="userSpaceOnUse"
       x1="113.0874"
       y1="175.3672"
       x2="-1.142"
       y2="254.6792" />
    <linearGradient
       inkscape:collect="always"
       xlink:href="#SVGID_4_"
       id="linearGradient3241"
       gradientUnits="userSpaceOnUse"
       x1="130.61079"
       y1="50.209"
       x2="254.0825"
       y2="50.209" />
    <radialGradient
       inkscape:collect="always"
       xlink:href="#SVGID_6_"
       id="radialGradient3245"
       gradientUnits="userSpaceOnUse"
       gradientTransform="matrix(16.0502,0,0,16.0502,-2063.0264,-2178.1418)"
       cx="136.4507"
       cy="143.5596"
       r="7.8839002" />
    <filter
       inkscape:label="Desaturate"
       x="0"
       y="0"
       width="1"
       height="1"
       inkscape:menu="Color"
       inkscape:menu-tooltip="Render in shades of gray by reducing saturation to zero"
       color-interpolation-filters="sRGB"
       id="filter3247">
      <feColorMatrix
         type="saturate"
         values="0"
         id="feColorMatrix3249" />
    </filter>
  </defs>
  <sodipodi:namedview
     id="base"
     pagecolor="#ffffff"
     bordercolor="#666666"
     borderopacity="1.0"
     inkscape:pageopacity="0.0"
     inkscape:pageshadow="2"
     inkscape:zoom="1.4"
     inkscape:cx="484.3961"
     inkscape:cy="150.8802"
     inkscape:document-units="px"
     inkscape:current-layer="g3039"
     showgrid="false"
     inkscape:window-width="1920"
     inkscape:window-height="1053"
     inkscape:window-x="0"
     inkscape:window-y="27"
     inkscape:window-maximized="1"
     fit-margin-top="0"
     fit-margin-left="0"
     fit-margin-right="0"
     fit-margin-bottom="0" />
  <metadata
     id="metadata3070">
    <rdf:RDF>
      <cc:Work
         rdf:about="">
        <dc:format>image/svg+xml</dc:format>
        <dc:type
           rdf:resource="http://purl.org/dc/dcmitype/StillImage" />
        <dc:title></dc:title>
      </cc:Work>
    </rdf:RDF>
  </metadata>
  <g
     inkscape:label="Layer 1"
     inkscape:groupmode="layer"
     id="layer1"
     transform="translate(-147.84915,-251.85092)">
    <g
       id="g3039"
       transform="matrix(1.8498521,0,0,1.8177199,147.84915,251.85092)"
       style="filter:url(#filter3247)">
      <path
         id="path22"
         d="m 104.299,171.624 c 2.774,10.006 9.134,20.201 10.646,22.508 -21.495,28.307 -56.007,47.605 -95.538,50.441 -0.171,0 -0.374,0 -0.561,0.031 -3.134,0.188 -6.298,0.344 -9.494,0.344 -0.639,0 -1.263,-0.062 -1.917,-0.062 V 224.87 c 0.639,0 1.278,0.031 1.917,0.031 41.324,-0.062 77.036,-21.666 94.947,-53.277 m 2.369,-19.018 -8.963,15.869 c -17.287,30.488 -51.144,49.506 -88.368,49.566 -0.28,0 -0.545,-0.029 -0.841,-0.029 -0.312,0 -0.624,0 -0.936,-0.031 L 0,217.856 v 7.014 20.016 6.732 l 7.295,0.127 c 0.203,0 0.421,0.031 0.639,0.031 0.468,0 0.936,0.031 1.418,0.031 3.227,0 6.594,-0.125 10.039,-0.375 h 0.078 0.093 0.218 0.031 l 0.171,-0.031 c 40.685,-2.9 77.519,-22.354 101.057,-53.342 l 2.758,-3.68 -2.479,-3.771 c -0.748,-1.123 -7.17,-11.191 -9.835,-20.699 l -4.815,-17.303 0,0 z"
         style="fill:url(#linearGradient3237)"
         inkscape:connector-curvature="0" />
      <path
         id="path40"
         d="m 245.338,7.139 c 0.45,0 0.856,0.032 1.294,0.032 v 20.015 c -0.422,0 -0.844,0 -1.294,0 -41.526,0.047 -77.379,21.854 -95.196,53.716 V 80.839 C 147.383,70.692 140.649,60.092 139.48,58.33 162.769,27.404 201.442,7.139 245.338,7.139 m 0,-6.858 0,0 c -44.582,0 -86.435,20.233 -111.968,54.121 l -2.76,3.647 2.494,3.804 c 0.748,1.153 7.296,11.317 9.836,20.669 l 4.786,17.614 9.024,-16.086 c 17.21,-30.802 51.177,-49.975 88.587,-50.021 0.155,0 0.279,0 0.45,0.016 0.235,0 0.515,0.031 0.766,0.031 l 7.528,0.093 V 27.186 7.171 0.405 l -7.326,-0.094 -0.359,-0.015 c -0.372,-0.015 -0.7,-0.015 -1.058,-0.015 l 0,0 z"
         style="fill:url(#linearGradient3241)"
         inkscape:connector-curvature="0" />
      <path
         id="path54"
         d="m 9.353,6.875 c 17.63,0 34.387,3.32 49.694,9.244 0.764,0.28 1.497,0.592 2.229,0.873 1.746,0.717 3.476,1.449 5.175,2.229 1.809,0.826 3.585,1.668 5.315,2.557 0.857,0.421 1.699,0.888 2.541,1.34 1.871,1.014 3.741,2.074 5.549,3.165 0.374,0.202 0.733,0.405 1.123,0.654 20.264,12.533 36.506,30.241 46.436,51.113 0.016,-0.078 0.062,-0.156 0.108,-0.234 6.235,13 10.07,27.185 10.913,42.103 -0.062,0.842 -0.062,11.427 -0.031,12.267 0.779,11.381 3.614,22.26 8.184,32.236 16.227,35.633 54.245,60.699 98.749,60.793 0.45,0 0.872,-0.031 1.294,-0.031 v 19.984 c -0.438,0 -0.844,0.031 -1.294,0.031 -46.344,0 -86.965,-22.602 -109.678,-56.492 -3.086,-4.582 -5.859,-9.383 -8.229,-14.402 -0.062,-0.062 -0.125,-0.186 -0.155,-0.279 -0.016,0.031 -0.031,0.062 -0.031,0.062 -6.22,-12.752 -10.102,-26.688 -11.068,-41.309 0.078,-1.061 0.281,-9.072 0.312,-10.319 C 114.431,69.366 67.324,26.967 9.353,26.905 c -0.639,0 -1.278,0.031 -1.917,0.031 V 6.921 c 0.654,0 1.277,-0.046 1.917,-0.046 M 9.353,0 C 8.885,0 8.433,0.016 7.966,0.032 7.747,0.062 7.544,0.062 7.342,0.062 L 0,0.156 v 6.765 20.015 6.999 L 7.591,33.81 8.479,33.764 c 0.281,0 0.577,-0.016 0.889,-0.016 53.872,0.093 97.643,39.047 99.685,88.742 -0.016,0.498 -0.046,1.464 -0.078,2.603 -0.062,2.292 -0.156,6.531 -0.219,7.217 l -0.015,0.422 0.015,0.451 c 0.998,15.152 4.957,29.867 11.707,43.74 -0.093,-0.188 -0.14,-0.438 -0.203,-0.623 0.156,0.436 0.327,0.777 0.5,1.029 2.431,5.111 5.331,10.131 8.573,14.994 25.08,37.379 68.446,59.732 116.006,59.732 0.342,0 0.686,0 1.027,-0.031 h 0.344 l 7.373,-0.031 v -6.826 -19.984 -6.983 l -7.528,0.062 c -0.251,0.062 -0.53,0.062 -0.766,0.062 -0.171,0 -0.295,0 -0.45,0 -40.187,-0.062 -76.272,-22.26 -91.891,-56.553 -4.35,-9.508 -6.905,-19.611 -7.606,-30.008 -0.049,-1.014 -0.049,-10.428 0,-11.489 l 0.031,-0.311 -0.031,-0.406 c -0.827,-15.37 -4.724,-30.365 -11.536,-44.519 L 127.292,62.723 C 116.894,46.169 102.506,31.984 85.11,21.213 84.658,20.948 84.283,20.73 83.91,20.527 82.148,19.451 80.231,18.36 78.08,17.191 l -0.873,-0.467 c -0.624,-0.328 -1.247,-0.67 -1.87,-0.982 -1.996,-1.029 -4.022,-1.964 -5.549,-2.666 -1.621,-0.733 -3.289,-1.434 -5.472,-2.354 l -0.67,-0.25 C 63.069,10.222 62.461,10.005 61.853,9.755 45.142,3.305 27.466,0 9.353,0 l 0,0 z"
         style="fill:url(#radialGradient3245)"
         inkscape:connector-curvature="0" />
    </g>
  </g>
</svg>
