<?xml version="1.0" encoding="UTF-8"?>
<!-- Generator: Adobe Illustrator 13.0.2, SVG Export Plug-In  -->
<!DOCTYPE svg PUBLIC "-//W3C//DTD SVG 1.1//EN" "http://www.w3.org/Graphics/SVG/1.1/DTD/svg11.dtd" [
	<!ENTITY ns_flows "http://ns.adobe.com/Flows/1.0/">
]>
<svg version="1.1" xmlns="http://www.w3.org/2000/svg" xmlns:xlink="http://www.w3.org/1999/xlink" xmlns:a="http://ns.adobe.com/AdobeSVGViewerExtensions/3.0/" x="0px" y="0px" width="256px" height="253px" viewBox="-0.965 -0.231 256 253" enable-background="new -0.965 -0.231 256 253" xml:space="preserve">
<defs>
</defs>
<linearGradient id="SVGID_1_" gradientUnits="userSpaceOnUse" x1="117.2437" y1="178.5684" x2="5.6531" y2="248.0489">
	<stop offset="0.0165" style="stop-color:#5A6B6E"/>
	<stop offset="0.3901" style="stop-color:#6393B2"/>
	<stop offset="1" style="stop-color:#B0CEE3"/>
</linearGradient>
<path fill="url(#SVGID_1_)" d="M9.353,248.378c-0.42,0-0.857-0.031-1.263-0.031l-0.716-0.031l-3.648-0.094v-3.336V224.87v-3.49  l3.772,0.062h0.873c0.328,0,0.655,0.031,0.982,0.031c38.611-0.062,73.715-19.766,91.641-51.441l4.474-7.918l2.416,8.666  c2.806,10.008,9.494,20.42,10.241,21.574l1.263,1.902l-1.402,1.84c-22.883,30.146-58.72,49.039-98.297,51.908h-0.452  C15.822,248.253,12.517,248.378,9.353,248.378L9.353,248.378z"/>
<linearGradient id="SVGID_2_" gradientUnits="userSpaceOnUse" x1="113.0874" y1="175.3672" x2="-1.142" y2="254.6792">
	<stop offset="0.0165" style="stop-color:#5A6B6E"/>
	<stop offset="0.3901" style="stop-color:#6393B2"/>
	<stop offset="1" style="stop-color:#B0CEE3"/>
</linearGradient>
<path fill="url(#SVGID_2_)" d="M104.299,171.624c2.774,10.006,9.134,20.201,10.646,22.508  c-21.495,28.307-56.007,47.605-95.538,50.441c-0.171,0-0.374,0-0.561,0.031c-3.134,0.188-6.298,0.344-9.494,0.344  c-0.639,0-1.263-0.062-1.917-0.062V224.87c0.639,0,1.278,0.031,1.917,0.031C50.676,224.839,86.388,203.235,104.299,171.624   M106.668,152.606l-8.963,15.869c-17.287,30.488-51.144,49.506-88.368,49.566c-0.28,0-0.545-0.029-0.841-0.029  c-0.312,0-0.624,0-0.936-0.031L0,217.856v7.014v20.016v6.732l7.295,0.127c0.203,0,0.421,0.031,0.639,0.031  c0.468,0,0.936,0.031,1.418,0.031c3.227,0,6.594-0.125,10.039-0.375h0.078h0.093h0.218h0.031l0.171-0.031  c40.685-2.9,77.519-22.354,101.057-53.342l2.758-3.68l-2.479-3.771c-0.748-1.123-7.17-11.191-9.835-20.699L106.668,152.606  L106.668,152.606z"/>
<linearGradient id="SVGID_3_" gradientUnits="userSpaceOnUse" x1="135.0688" y1="47.1226" x2="250.3579" y2="47.1226">
	<stop offset="0.0165" style="stop-color:#5A6B6E"/>
	<stop offset="0.3901" style="stop-color:#6393B2"/>
	<stop offset="1" style="stop-color:#B0CEE3"/>
</linearGradient>
<path fill="url(#SVGID_3_)" d="M148.927,90.535l-2.369-8.854c-2.698-9.852-9.494-20.42-10.258-21.573l-1.231-1.917l1.371-1.824  C161.272,23.397,201.957,3.71,245.338,3.71c0.279,0,0.593,0.016,0.888,0.016l0.483,0.016l3.648,0.062v3.367v20.015v3.492  l-3.757-0.031l-0.624-0.031h-0.639c-38.814,0.046-74.026,19.921-91.891,51.861L148.927,90.535L148.927,90.535z"/>
<linearGradient id="SVGID_4_" gradientUnits="userSpaceOnUse" x1="130.6108" y1="50.209" x2="254.0825" y2="50.209">
	<stop offset="0.0165" style="stop-color:#5A6B6E"/>
	<stop offset="0.3901" style="stop-color:#6393B2"/>
	<stop offset="1" style="stop-color:#B0CEE3"/>
</linearGradient>
<path fill="url(#SVGID_4_)" d="M245.338,7.139c0.45,0,0.856,0.032,1.294,0.032v20.015c-0.422,0-0.844,0-1.294,0  c-41.526,0.047-77.379,21.854-95.196,53.716v-0.063c-2.759-10.147-9.493-20.747-10.662-22.509  C162.769,27.404,201.442,7.139,245.338,7.139 M245.338,0.281L245.338,0.281c-44.582,0-86.435,20.233-111.968,54.121l-2.76,3.647  l2.494,3.804c0.748,1.153,7.296,11.317,9.836,20.669l4.786,17.614l9.024-16.086c17.21-30.802,51.177-49.975,88.587-50.021  c0.155,0,0.279,0,0.45,0.016c0.235,0,0.515,0.031,0.766,0.031l7.528,0.093v-6.983V7.171V0.405l-7.326-0.094l-0.359-0.015  C246.024,0.281,245.696,0.281,245.338,0.281L245.338,0.281z"/>
<radialGradient id="SVGID_5_" cx="405.3345" cy="-71.5923" r="78.2042" gradientTransform="matrix(2.9901 0 0 2.7606 -1085.2839 327.5948)" gradientUnits="userSpaceOnUse">
	<stop offset="0" style="stop-color:#F6F8F8"/>
	<stop offset="1" style="stop-color:#B0CEE3"/>
</radialGradient>
<path fill="url(#SVGID_5_)" d="M245.338,248.628c-46.281,0-88.463-21.699-112.842-58.113c-3.21-4.77-6.063-9.758-8.464-14.809  c-0.031,0-0.156-0.248-0.25-0.498l0.063,0.312c-6.579-13.531-10.414-27.842-11.38-42.557l-0.015-0.217l0.015-0.203  c0.062-0.701,0.156-4.537,0.234-7.311l0.078-2.868c-1.995-51.44-47.434-91.937-103.441-92.03H8.417l-0.92,0.031l-3.772,0.062v-3.492  V6.921V3.555l3.648-0.063L8.09,3.461c0.437-0.016,0.842-0.032,1.247-0.032c17.615,0,34.823,3.211,51.145,9.509l1.605,0.639  l0.655,0.265c1.839,0.764,3.617,1.496,5.362,2.291c1.855,0.858,3.679,1.731,5.487,2.635c0.514,0.265,1.091,0.561,1.637,0.873  l0.935,0.499c1.949,1.06,3.851,2.136,5.721,3.258l1.091,0.639c21.137,13.062,37.66,31.238,47.839,52.625  c6.734,13.53,10.506,28.12,11.334,43.069v0.187v0.188c-0.062,0.92-0.062,10.957,0,11.925c0.717,10.754,3.366,21.199,7.87,31.082  c16.196,35.57,53.624,58.547,95.321,58.641h0.639h0.624l3.757-0.094v3.523v19.984v3.398l-3.648,0.031h-0.483  C245.931,248.628,245.618,248.628,245.338,248.628L245.338,248.628z"/>
<radialGradient id="SVGID_6_" cx="136.4507" cy="143.5596" r="7.8839" gradientTransform="matrix(16.0502 0 0 16.0502 -2063.0264 -2178.1418)" gradientUnits="userSpaceOnUse">
	<stop offset="0" style="stop-color:#F6F8F8"/>
	<stop offset="1" style="stop-color:#B0CEE3"/>
</radialGradient>
<path fill="url(#SVGID_6_)" d="M9.353,6.875c17.63,0,34.387,3.32,49.694,9.244c0.764,0.28,1.497,0.592,2.229,0.873  c1.746,0.717,3.476,1.449,5.175,2.229c1.809,0.826,3.585,1.668,5.315,2.557c0.857,0.421,1.699,0.888,2.541,1.34  c1.871,1.014,3.741,2.074,5.549,3.165c0.374,0.202,0.733,0.405,1.123,0.654c20.264,12.533,36.506,30.241,46.436,51.113  c0.016-0.078,0.062-0.156,0.108-0.234c6.235,13,10.07,27.185,10.913,42.103c-0.062,0.842-0.062,11.427-0.031,12.267  c0.779,11.381,3.614,22.26,8.184,32.236c16.227,35.633,54.245,60.699,98.749,60.793c0.45,0,0.872-0.031,1.294-0.031v19.984  c-0.438,0-0.844,0.031-1.294,0.031c-46.344,0-86.965-22.602-109.678-56.492c-3.086-4.582-5.859-9.383-8.229-14.402  c-0.062-0.062-0.125-0.186-0.155-0.279c-0.016,0.031-0.031,0.062-0.031,0.062c-6.22-12.752-10.102-26.688-11.068-41.309  c0.078-1.061,0.281-9.072,0.312-10.319C114.431,69.366,67.324,26.967,9.353,26.905c-0.639,0-1.278,0.031-1.917,0.031V6.921  C8.09,6.921,8.713,6.875,9.353,6.875 M9.353,0C8.885,0,8.433,0.016,7.966,0.032C7.747,0.062,7.544,0.062,7.342,0.062L0,0.156v6.765  v20.015v6.999l7.591-0.125l0.888-0.046c0.281,0,0.577-0.016,0.889-0.016c53.872,0.093,97.643,39.047,99.685,88.742  c-0.016,0.498-0.046,1.464-0.078,2.603c-0.062,2.292-0.156,6.531-0.219,7.217l-0.015,0.422l0.015,0.451  c0.998,15.152,4.957,29.867,11.707,43.74c-0.093-0.188-0.14-0.438-0.203-0.623c0.156,0.436,0.327,0.777,0.5,1.029  c2.431,5.111,5.331,10.131,8.573,14.994c25.08,37.379,68.446,59.732,116.006,59.732c0.342,0,0.686,0,1.027-0.031h0.344l7.373-0.031  v-6.826v-19.984V218.2l-7.528,0.062c-0.251,0.062-0.53,0.062-0.766,0.062c-0.171,0-0.295,0-0.45,0  c-40.187-0.062-76.272-22.26-91.891-56.553c-4.35-9.508-6.905-19.611-7.606-30.008c-0.049-1.014-0.049-10.428,0-11.489l0.031-0.311  l-0.031-0.406c-0.827-15.37-4.724-30.365-11.536-44.519l-7.014-12.315c-10.398-16.554-24.786-30.739-42.182-41.51  c-0.452-0.265-0.827-0.483-1.2-0.686c-1.762-1.076-3.679-2.167-5.83-3.336l-0.873-0.467c-0.624-0.328-1.247-0.67-1.87-0.982  c-1.996-1.029-4.022-1.964-5.549-2.666c-1.621-0.733-3.289-1.434-5.472-2.354l-0.67-0.25c-0.577-0.25-1.185-0.467-1.793-0.717  C45.142,3.305,27.466,0,9.353,0L9.353,0z"/>
</svg>